<?xml version="1.0" standalone="no"?><!DOCTYPE svg PUBLIC "-//W3C//DTD SVG 1.1//EN" "http://www.w3.org/Graphics/SVG/1.1/DTD/svg11.dtd"><svg t="1655712139924" class="icon" viewBox="0 0 1024 1024" version="1.1" xmlns="http://www.w3.org/2000/svg" p-id="2292" xmlns:xlink="http://www.w3.org/1999/xlink" width="200" height="200"><defs><style type="text/css"></style></defs><path d="M562.483 517.885a0.05 0.05 0 0 0-0.071 0l-19.763 19.763-19.763 19.763a0.05 0.05 0 0 0 0 0.071L772.012 806.61c10.807 10.807 28.432 11.487 39.514 0.962 11.461-10.886 11.638-29.006 0.53-40.114L562.483 517.885zM548.305 503.707l264.458-264.458c11.108-11.108 10.932-29.229-0.53-40.114-11.082-10.525-28.707-9.845-39.514 0.962L512.95 459.866a6 6 0 0 1-8.485 0L243.542 198.944c-11.108-11.108-29.229-10.932-40.114 0.53-10.525 11.082-9.845 28.707 0.962 39.514l260.476 260.476a6 6 0 0 1 0 8.485l-259.769 259.77c-10.807 10.807-11.487 28.432-0.962 39.514 10.886 11.461 29.006 11.638 40.114 0.53l264.458-264.458 19.799-19.799 19.799-19.799z" p-id="2293"></path></svg>